<mxfile host="app.diagrams.net" modified="2023-08-29T16:28:11.469Z" agent="Mozilla/5.0 (Macintosh; Intel Mac OS X 10_15_7) AppleWebKit/537.36 (KHTML, like Gecko) Chrome/116.0.0.0 Safari/537.36" version="21.7.0" etag="jyND97KgW6AG1WqF3Uk3" type="github">
  <diagram name="Page-1" id="RjgmoXscVRMcafdtMGdy">
    <mxGraphModel>
      <root>
        <mxCell id="0" />
        <mxCell id="1" parent="0" />
      </root>
    </mxGraphModel>
  </diagram>
</mxfile>
